# AST/ASF file generated using VICON BodyLanguage
# -----------------------------------------------
:version 1.10
:name VICON
:units
  mass 1.0
  length 0.45
  angle deg
:documentation
   .ast/.asf automatically generated from VICON data using
   VICON BodyBuilder and BodyLanguage model FoxedUp or BRILLIANT.MOD
:root
   order TX TY TZ RX RY RZ
   axis XYZ
   position 0 0 0  
   orientation 0 0 0 
:bonedata
  begin
     id 1 
     name lhipjoint
     direction 0.561001 -0.76473 0.316963 
     length 2.4722 
     axis 0 0 0  XYZ
  end
  begin
     id 2 
     name lfemur
     direction 0.34202 -0.939693 0  
     length 7.59403  
     axis 0 0 20  XYZ
    dof rx ry rz
    limits (-160.0 20.0)
           (-70.0 70.0)
           (-60.0 70.0)
  end
  begin
     id 3 
     name ltibia
     direction 0.34202 -0.939693 0   
     length 7.89655   
     axis 0 0 20   XYZ
    dof rx
    limits (-10.0 170.0)
  end
  begin
     id 4 
     name lfoot
     direction 0.061296 -0.168409 0.98381   
     length 2.73287   
     axis -90 7.62852e-016 20   XYZ
    dof rx rz
    limits (-45.0 90.0)
           (-70.0 20.0)
  end
  begin
     id 5 
     name ltoes
     direction 1.53547e-011 -4.21984e-011 1   
     length 1.37057   
     axis -90 7.62852e-016 20   XYZ
    dof rx
    limits (-90.0 20.0)
  end
  begin
     id 6 
     name rhipjoint
     direction -0.559611 -0.765599 0.317323   
     length 2.46939  
     axis 0 0 0  XYZ 
  end
  begin
     id 7 
     name rfemur
     direction -0.34202 -0.939693 0   
     length 7.53712   
     axis 0 0 -20   XYZ
    dof rx ry rz
    limits (-160.0 20.0)
           (-70.0 70.0)
           (-70.0 60.0)
  end
  begin
     id 8 
     name rtibia
     direction -0.34202 -0.939693 0   
     length 8.12549   
     axis 0 0 -20   XYZ
    dof rx
    limits (-10.0 170.0)
 end
 begin
     id 9 
     name rfoot
     direction -0.066984 -0.184037 0.980634   
     length 2.67541  
     axis -90 -7.62852e-016 -20   XYZ
    dof rx rz
    limits (-45.0 90.0)
           (-20.0 70.0)
  end
  begin
     id 10 
     name rtoes
     direction -1.53549e-011 -4.21786e-011 1   
     length 1.34085   
     axis -90 -7.62852e-016 -20   XYZ
    dof rx
    limits (-90.0 20.0)
  end
  begin
     id 11 
     name lowerback
     direction -0.0522728 0.992594 -0.109658   
     length 2.05633   
     axis 0 0 0   XYZ
    dof rx ry rz
    limits (-20.0 45.0)
           (-30.0 30.0)
           (-30.0 30.0)
  end
  begin
     id 12 
     name upperback
     direction 0.00589338 0.999977 0.00335704   
     length 2.05845   
     axis 0 0 0   XYZ
    dof rx ry rz
    limits (-20.0 45.0)
           (-30.0 30.0)
           (-30.0 30.0)
  end
  begin
     id 13 
     name thorax
     direction 0.0292928 0.998059 0.0549487   
     length 2.09281   
     axis 0 0 0   XYZ
    dof rx ry rz
    limits (-20.0 45.0)
           (-30.0 30.0)
           (-30.0 30.0)
  end
  begin
     id 14 
     name lowerneck
     direction 0.0356368 0.980775 0.191858   
     length 1.84767   
     axis 0 0 0   XYZ
    dof rx ry rz
    limits (-20.0 45.0)
           (-30.0 30.0)
           (-30.0 30.0)
  end
  begin
     id 15 
     name upperneck
     direction -0.0227605 0.98931 -0.14404   
     length 1.89582   
     axis 0 0 0   XYZ
    dof rx ry rz
    limits (-20.0 45.0)
           (-30.0 30.0)
           (-30.0 30.0)
  end
  begin
     id 16
     name head
     direction -0.00932985 0.997511 -0.0698904  
     length 1.90213  
     axis 0 0 0   XYZ
    dof rx ry rz
    limits (-20.0 45.0)
           (-30.0 30.0)
           (-30.0 30.0)
  end
  begin
     id 17 
     name lclavicle
     direction 0.873442 0.479511 0.0846686  
     length 3.41193  
     axis 0 0 0   XYZ
    dof ry rz
    limits (-20.0 10.0)
           (0.0 20.0)
  end
  begin
     id 18 
     name lhumerus
     direction 1 -4.4897e-011 -5.62117e-018   
     length 5.59864   
     axis 180 -30 -90   XYZ
    dof rx ry rz
    limits (-60.0 90.0)
           (-90.0 90.0)
           (-90.0 90.0)
  end
  begin
     id 19
     name lradius
     direction 1 -4.48966e-011 -6.26295e-027   
     length 3.59542   
     axis 180 -30 -90   XYZ
    dof rx
    limits (-10.0 170.0)
  end
  begin
     id 20
     name lwrist
     direction 1 -4.48947e-011 -1.74096e-026   
     length 1.79771   
     axis 1.04567e-014 90 90   XYZ
    dof ry
    limits (-180.0 0.0)
 end
  begin
     id 21 
     name lhand
     direction 1 -4.49085e-011 -3.48469e-026   
     length 0.572014   
     axis 2.22196e-014 90 90   XYZ
    dof rx rz
    limits (-90.0 90.0)
           (-45.0 45.0)
  end
  begin
     id 22 
     name lfingers
     direction 1 -4.48884e-011 -6.96135e-026   
     length 0.461173   
     axis 4.44383e-014 90 90   XYZ
    dof rx
    limits (0.0 90.0)
  end
  begin
     id 23
     name lthumb
     direction 0.707107 -6.34976e-011 0.707107   
     length 0.662154   
     axis -90 45 -5.4397e-014   XYZ
    dof rx rz
    limits (-45.0 45.0)
           (-45.0 45.0)
  end
  begin
     id 24 
     name rclavicle
     direction -0.890242 0.443271 0.104786   
     length 3.46753  
     axis 0 0 0   XYZ 
    dof ry rz
    limits (-10.0 20.0)
           (-20.0 0.0)
  end
  begin
     id 25 
     name rhumerus
     direction -1 -4.48963e-011 -5.41723e-018  
     length 5.8094   
     axis 180 30 90   XYZ
    dof rx ry rz
    limits (-90.0 60.0)
           (-90.0 90.0)
           (-90.0 90.0)
  end
  begin
     id 26 
     name rradius
     direction -1 -4.48958e-011 -6.51059e-027   
     length 3.66953   
     axis 180 30 90   XYZ
    dof rx
    limits (-10.0 170.0)
  end
  begin
     id 27 
     name rwrist
     direction -1 -4.48975e-011 -1.74124e-026   
     length 1.83476   
     axis 1.04567e-014 -90 -90   XYZ
    dof ry
    limits (-180.0 0.0)
  end
  begin
     id 28
     name rhand
     direction -1 -4.49013e-011 -3.48326e-026   
     length 0.57843   
     axis 2.22196e-014 -90 -90   XYZ
    dof rx rz
    limits (-90.0 90.0)
           (-45.0 45.0)
  end
  begin
     id 29
     name rfingers
     direction -1 -4.49023e-011 -6.9669e-026   
     length 0.466345   
     axis 4.44383e-014 -90 -90   XYZ
    dof rx
    limits (0.0 90.0)
  end
  begin
     id 30
     name rthumb
     direction -0.707107 -6.34926e-011 0.707107   
     length 0.669581   
     axis -90 -45 5.4397e-014   XYZ
    dof rx rz
    limits (-45.0 45.0)
           (-45.0 45.0)
  end
:hierarchy
  begin
    root lhipjoint rhipjoint lowerback
    lhipjoint lfemur
    lfemur ltibia
    ltibia lfoot
    lfoot ltoes
    rhipjoint rfemur
    rfemur rtibia
    rtibia rfoot
    rfoot rtoes
    lowerback upperback
    upperback thorax
    thorax lowerneck lclavicle rclavicle
    lowerneck upperneck
    upperneck head
    lclavicle lhumerus
    lhumerus lradius
    lradius lwrist
    lwrist lhand lthumb
    lhand lfingers
    rclavicle rhumerus
    rhumerus rradius
    rradius rwrist
    rwrist rhand rthumb
    rhand rfingers
  end

#!OML:ASF H:\SkateBoarding\Project 1\Capture day 1\Session 1\Skater.ASF
:FULLY-SPECIFIED
:DEGREES
176
root 12.7322 19.564 23.3163 -4.019 51.9117 -15.0259
lowerback 11.1756 1.00507 -6.17251
upperback -0.425663 0.503846 -0.38144
thorax -6.79261 0.460747 2.99269
lowerneck -10.7731 1.56047 6.2031
upperneck 44.8796 3.22532 -1.75308
head 19.1375 2.53761 -1.25081
rclavicle 3.73715e-014 -1.43125e-014
rhumerus -18.993 -3.35307 -94.2921
rradius 30.1956
rwrist -1.12141
rhand -25.437 -7.63598
rfingers 7.12502
rthumb 1.08948 -37.6129
lclavicle 3.73715e-014 -1.43125e-014
lhumerus -19.1775 -2.03621 80.4805
lradius 28.6388
lwrist 18.0046
lhand -20.199 11.1878
lfingers 7.12502
lthumb 6.1477 41.0786
rfemur -25.0837 -0.775183 28.4587
rtibia 29.7931
rfoot -16.1735 5.02693
rtoes -4.58066
lfemur -23.2465 -22.5212 2.21454
ltibia 37.5316
lfoot -48.9401 22.1669
ltoes -17.5123
177
root 12.6429 19.5597 23.4958 -4.04351 51.781 -15.0753
lowerback 11.1538 1.00098 -6.18341
upperback -0.432858 0.497869 -0.386803
thorax -6.78747 0.458093 2.99424
lowerneck -10.7433 1.56551 6.18585
upperneck 44.8539 3.27435 -1.83828
head 19.1166 2.541 -1.28123
rclavicle -7.83212e-014 6.36111e-015
rhumerus -19.0028 -3.30635 -94.3666
rradius 30.2435
rwrist -1.12778
rhand -25.3139 -7.64928
rfingers 7.12502
rthumb 1.20841 -37.6256
lclavicle -7.83212e-014 6.36111e-015
lhumerus -19.1181 -2.06536 80.5026
lradius 28.6202
lwrist 17.8868
lhand -20.1466 11.167
lfingers 7.12502
lthumb 6.19827 41.0563
rfemur -25.0425 -0.822776 28.5073
rtibia 29.723
rfoot -16.1833 5.10547
rtoes -4.52722
lfemur -23.3084 -22.5574 2.27106
ltibia 37.6205
lfoot -48.958 22.2087
ltoes -17.5613
178
root 12.5534 19.5554 23.6748 -4.06731 51.6497 -15.117
lowerback 11.1331 1.00106 -6.20245
upperback -0.437906 0.496435 -0.391555
thorax -6.7812 0.457883 3.00026
lowerneck -10.7139 1.56262 6.16125
upperneck 44.8266 3.31533 -1.92912
head 19.0942 2.53926 -1.3145
rclavicle -1.86858e-014 4.6118e-014
rhumerus -19.0099 -3.27505 -94.4308
rradius 30.2805
rwrist -1.11998
rhand -25.2061 -7.66064
rfingers 7.12502
rthumb 1.31254 -37.6363
lclavicle -1.86858e-014 4.6118e-014
lhumerus -19.0474 -2.09979 80.526
lradius 28.5985
lwrist 17.764
lhand -20.1033 11.1533
lfingers 7.12502
lthumb 6.24011 41.0414
rfemur -24.9925 -0.863871 28.5492
rtibia 29.6515
rfoot -16.201 5.18605
rtoes -4.46506
lfemur -23.3587 -22.5945 2.31997
ltibia 37.7028
lfoot -48.9893 22.2381
ltoes -17.5962
179
root 12.4637 19.5509 23.8529 -4.08912 51.524 -15.1542
lowerback 11.1112 0.999648 -6.21946
upperback -0.441598 0.493296 -0.398839
thorax -6.77256 0.456634 3.00275
lowerneck -10.6848 1.55517 6.1303
upperneck 44.7973 3.35314 -2.02542
head 19.0703 2.53443 -1.34983
rclavicle 2.42517e-014 2.38542e-014
rhumerus -19.0108 -3.25358 -94.4917
rradius 30.3026
rwrist -1.10115
rhand -25.1144 -7.66912
rfingers 7.12502
rthumb 1.4011 -37.6443
lclavicle 2.42517e-014 2.38542e-014
lhumerus -18.9653 -2.12836 80.543
lradius 28.574
lwrist 17.6377
lhand -20.0496 11.137
lfingers 7.12502
lthumb 6.29188 41.0236
rfemur -24.9392 -0.906135 28.5853
rtibia 29.5787
rfoot -16.2254 5.27186
rtoes -4.37826
lfemur -23.4063 -22.6316 2.36365
ltibia 37.78
lfoot -49.0329 22.2486
ltoes -17.6097
180
root 12.3739 19.5463 24.0303 -4.10907 51.3979 -15.184
lowerback 11.0906 0.998376 -6.24375
upperback -0.444734 0.489409 -0.404724
thorax -6.76411 0.455296 3.01094
lowerneck -10.6552 1.54264 6.08297
upperneck 44.7692 3.38817 -2.12205
head 19.0464 2.52573 -1.38282
rclavicle -6.44062e-014 -2.8625e-014
rhumerus -19.009 -3.23348 -94.5453
rradius 30.3105
rwrist -1.06754
rhand -25.0262 -7.67459
rfingers 7.12502
rthumb 1.48625 -37.6492
lclavicle -6.44062e-014 -2.8625e-014
lhumerus -18.8791 -2.1542 80.5571
lradius 28.5507
lwrist 17.5175
lhand -19.99 11.121
lfingers 7.12502
lthumb 6.34944 41.0058
rfemur -24.8791 -0.946029 28.6161
rtibia 29.5046
rfoot -16.253 5.36023
rtoes -4.28715
lfemur -23.4441 -22.6667 2.39886
ltibia 37.8524
lfoot -49.0879 22.2479
ltoes -17.6166
181
root 12.284 19.5416 24.2067 -4.12374 51.2764 -15.2052
lowerback 11.0684 0.995073 -6.26946
upperback -0.446405 0.482759 -0.411993
thorax -6.75289 0.452528 3.01895
lowerneck -10.6248 1.52513 6.03129
upperneck 44.74 3.42257 -2.23243
head 19.0217 2.51425 -1.42181
rclavicle -1.70955e-014 1.90833e-014
rhumerus -19.0011 -3.20838 -94.5935
rradius 30.3064
rwrist -1.03458
rhand -24.9394 -7.67826
rfingers 7.12502
rthumb 1.57006 -37.6522
lclavicle -1.70955e-014 1.90833e-014
lhumerus -18.7859 -2.17921 80.5669
lradius 28.5296
lwrist 17.4085
lhand -19.9163 11.0959
lfingers 7.12502
lthumb 6.42065 40.9786
rfemur -24.8172 -0.984109 28.6384
rtibia 29.4309
rfoot -16.2848 5.44894
rtoes -4.18069
lfemur -23.4803 -22.7066 2.42627
ltibia 37.922
lfoot -49.1448 22.2542
ltoes -17.6357
182
root 12.1939 19.537 24.3823 -4.13467 51.1567 -15.2192
lowerback 11.0467 0.991543 -6.29563
upperback -0.447687 0.475709 -0.419766
thorax -6.74151 0.44956 3.02675
lowerneck -10.5971 1.50103 5.96665
upperneck 44.7153 3.45334 -2.3485
head 19.0003 2.49856 -1.4618
rclavicle -4.92986e-014 2.54444e-014
rhumerus -18.989 -3.1905 -94.6346
rradius 30.2915
rwrist -0.993851
rhand -24.8564 -7.68435
rfingers 7.12502
rthumb 1.65025 -37.6577
lclavicle -4.92986e-014 2.54444e-014
lhumerus -18.6866 -2.20341 80.5746
lradius 28.5092
lwrist 17.3128
lhand -19.8339 11.0598
lfingers 7.12502
lthumb 6.50012 40.9401
rfemur -24.7545 -1.01906 28.6553
rtibia 29.3608
rfoot -16.321 5.53572
rtoes -4.07006
lfemur -23.5136 -22.7497 2.44679
ltibia 37.9903
lfoot -49.2018 22.2675
ltoes -17.6669
183
root 12.1036 19.5324 24.5571 -4.14534 51.0368 -15.233
lowerback 11.0244 0.986553 -6.32162
upperback -0.449053 0.466893 -0.425972
thorax -6.72974 0.445736 3.03641
lowerneck -10.5754 1.47374 5.89091
upperneck 44.6976 3.48578 -2.47143
head 18.9852 2.48088 -1.50275
rclavicle -3.53837e-014 1.74931e-014
rhumerus -18.9727 -3.16604 -94.6712
rradius 30.2678
rwrist -0.95609
rhand -24.7744 -7.69638
rfingers 7.12502
rthumb 1.72947 -37.6691
lclavicle -3.53837e-014 1.74931e-014
lhumerus -18.5857 -2.22832 80.5774
lradius 28.4945
lwrist 17.2394
lhand -19.7466 11.0058
lfingers 7.12502
lthumb 6.5844 40.8834
rfemur -24.6955 -1.05095 28.6735
rtibia 29.2973
rfoot -16.358 5.61702
rtoes -3.96744
lfemur -23.5471 -22.7952 2.4683
ltibia 38.0586
lfoot -49.2562 22.291
ltoes -17.7109
184
root 12.0131 19.528 24.7307 -4.15333 50.9213 -15.2455
lowerback 11.0028 0.979856 -6.34034
upperback -0.451417 0.456574 -0.433807
thorax -6.71914 0.440947 3.04048
lowerneck -10.5571 1.43943 5.81211
upperneck 44.6856 3.5148 -2.60863
head 18.975 2.45967 -1.55069
rclavicle -2.66371e-014 6.67916e-014
rhumerus -18.9543 -3.13903 -94.7026
rradius 30.24
rwrist -0.926218
rhand -24.6888 -7.71248
rfingers 7.12502
rthumb 1.81212 -37.6845
lclavicle -2.66371e-014 6.67916e-014
lhumerus -18.4819 -2.25499 80.5761
lradius 28.484
lwrist 17.1841
lhand -19.6534 10.9262
lfingers 7.12502
lthumb 6.67443 40.801
rfemur -24.6449 -1.08643 28.6924
rtibia 29.2431
rfoot -16.3958 5.69034
rtoes -3.87969
lfemur -23.5872 -22.8503 2.49172
ltibia 38.1272
lfoot -49.3034 22.3271
ltoes -17.7586
185
root 11.9225 19.5238 24.9032 -4.16203 50.8066 -15.2606
lowerback 10.9809 0.970361 -6.35158
upperback -0.454829 0.443603 -0.439745
thorax -6.70916 0.434668 3.04278
lowerneck -10.5413 1.40142 5.7205
upperneck 44.6795 3.54538 -2.75238
head 18.9694 2.4362 -1.59921
rclavicle 2.82274e-014 -2.54444e-014
rhumerus -18.9344 -3.10617 -94.7288
rradius 30.2087
rwrist -0.902216
rhand -24.602 -7.73375
rfingers 7.12502
rthumb 1.89594 -37.7051
lclavicle 2.82274e-014 -2.54444e-014
lhumerus -18.3823 -2.29305 80.5738
lradius 28.4861
lwrist 17.1732
lhand -19.5909 10.8456
lfingers 7.12502
lthumb 6.73471 40.7185
rfemur -24.6027 -1.12061 28.7155
rtibia 29.1998
rfoot -16.4345 5.75248
rtoes -3.82235
lfemur -23.6312 -22.9108 2.52024
ltibia 38.1952
lfoot -49.3393 22.3743
ltoes -17.8112
186
root 11.8316 19.52 25.0753 -4.17234 50.6804 -15.2772
lowerback 10.956 0.967292 -6.36369
upperback -0.457878 0.439334 -0.445255
thorax -6.69795 0.432626 3.04458
lowerneck -10.5302 1.3561 5.6251
upperneck 44.6785 3.56975 -2.90471
head 18.9682 2.40868 -1.65236
rclavicle -3.85642e-014 -4.6118e-014
rhumerus -18.9137 -3.08214 -94.7489
rradius 30.1766
rwrist -0.884575
rhand -24.5157 -7.76024
rfingers 7.12502
rthumb 1.97928 -37.7308
lclavicle -3.85642e-014 -4.6118e-014
lhumerus -18.283 -2.34818 80.5733
lradius 28.5056
lwrist 17.2067
lhand -19.5829 10.8073
lfingers 7.12502
lthumb 6.74251 40.6799
rfemur -24.5652 -1.1436 28.7459
rtibia 29.1679
rfoot -16.4738 5.80321
rtoes -3.78557
lfemur -23.6679 -22.9681 2.55316
ltibia 38.261
lfoot -49.3703 22.4295
ltoes -17.8645
187
root 11.7407 19.5164 25.2465 -4.18249 50.5444 -15.293
lowerback 10.928 0.97011 -6.37211
upperback -0.460782 0.443498 -0.452514
thorax -6.68566 0.434505 3.04105
lowerneck -10.5167 1.30257 5.52451
upperneck 44.677 3.58584 -3.06325
head 18.9655 2.3763 -1.7091
rclavicle 5.48646e-014 -4.77083e-015
rhumerus -18.893 -3.0723 -94.7629
rradius 30.1433
rwrist -0.866209
rhand -24.4337 -7.78765
rfingers 7.12502
rthumb 2.05847 -37.7575
lclavicle 5.48646e-014 -4.77083e-015
lhumerus -18.1864 -2.42749 80.5725
lradius 28.5441
lwrist 17.2814
lhand -19.6157 10.7958
lfingers 7.12502
lthumb 6.71082 40.6694
rfemur -24.5324 -1.16072 28.7815
rtibia 29.1468
rfoot -16.5113 5.8462
rtoes -3.76754
lfemur -23.6975 -23.023 2.58782
ltibia 38.3232
lfoot -49.3946 22.4922
ltoes -17.9173
188
root 11.6497 19.5129 25.4168 -4.19272 50.4006 -15.3082
lowerback 10.8975 0.977255 -6.3786
upperback -0.463358 0.453974 -0.458103
thorax -6.67218 0.439381 3.03717
lowerneck -10.501 1.24097 5.41361
upperneck 44.6755 3.59622 -3.22989
head 18.9617 2.33896 -1.76896
rclavicle 2.78299e-014 -3.18055e-015
rhumerus -18.8742 -3.06512 -94.768
rradius 30.1104
rwrist -0.849848
rhand -24.3621 -7.81634
rfingers 7.12502
rthumb 2.12766 -37.7855
lclavicle 2.78299e-014 -3.18055e-015
lhumerus -18.0926 -2.51592 80.5772
lradius 28.5992
lwrist 17.3864
lhand -19.6886 10.8204
lfingers 7.12502
lthumb 6.64041 40.6963
rfemur -24.5032 -1.17244 28.8212
rtibia 29.1348
rfoot -16.5487 5.88506
rtoes -3.76307
lfemur -23.72 -23.0752 2.62424
ltibia 38.3807
lfoot -49.4136 22.5598
ltoes -17.9729
189
root 11.5584 19.5095 25.5864 -4.20218 50.2546 -15.3208
lowerback 10.8689 0.988836 -6.38949
upperback -0.465792 0.469696 -0.462847
thorax -6.66025 0.44703 3.03578
lowerneck -10.4816 1.17124 5.30222
upperneck 44.6701 3.6005 -3.41146
head 18.9545 2.29725 -1.83707
rclavicle -9.85972e-014 2.8625e-014
rhumerus -18.856 -3.07674 -94.7649
rradius 30.0773
rwrist -0.825696
rhand -24.3034 -7.84529
rfingers 7.12502
rthumb 2.18437 -37.8139
lclavicle -9.85972e-014 2.8625e-014
lhumerus -18.003 -2.61995 80.5846
lradius 28.6766
lwrist 17.5169
lhand -19.7838 10.8867
lfingers 7.12502
lthumb 6.54858 40.7655
rfemur -24.4766 -1.17989 28.8629
rtibia 29.1307
rfoot -16.5888 5.92268
rtoes -3.74878
lfemur -23.7373 -23.1259 2.66162
ltibia 38.4329
lfoot -49.429 22.6269
ltoes -18.0286
190
root 11.4669 19.506 25.7551 -4.21143 50.1085 -15.3315
lowerback 10.8412 0.999686 -6.40201
upperback -0.467809 0.48437 -0.464713
thorax -6.64834 0.454264 3.03855
lowerneck -10.462 1.09828 5.17597
upperneck 44.6649 3.60595 -3.59669
head 18.9473 2.25303 -1.904
rclavicle 9.70069e-014 3.18055e-015
rhumerus -18.84 -3.08142 -94.7557
rradius 30.0456
rwrist -0.801147
rhand -24.256 -7.8787
rfingers 7.12502
rthumb 2.23009 -37.8468
lclavicle 9.70069e-014 3.18055e-015
lhumerus -17.9196 -2.71609 80.5916
lradius 28.7687
lwrist 17.6522
lhand -19.8899 10.9719
lfingers 7.12502
lthumb 6.44613 40.8538
rfemur -24.4508 -1.18551 28.9054
rtibia 29.1324
rfoot -16.6339 5.96112
rtoes -3.74231
lfemur -23.7496 -23.1758 2.69892
ltibia 38.4803
lfoot -49.4455 22.6908
ltoes -18.0804
